<svg width="512" height="512" version="1.1" xmlns="http://www.w3.org/2000/svg" desc="Created with imagetracer.js version 1.2.6" ><path fill="rgb(0,0,0)" stroke="rgb(0,0,0)" stroke-width="1" opacity="0" d="M 0 0 L 511.5 0 L 512 0.5 L 512 85 L 0.5 85 L 0 84.5 L 0 0 Z " /><path fill="rgb(0,0,0)" stroke="rgb(0,0,0)" stroke-width="1" opacity="0" d="M 0 427 L 511.5 427 L 512 427.5 L 512 512 L 0.5 512 L 0 511.5 L 0 427 Z " /><path fill="rgb(0,0,0)" stroke="rgb(0,0,0)" stroke-width="1" opacity="0.996078431372549" d="M 0.5 85 L 512 85.5 L 0.5 86 L 0.5 85 Z " /><path fill="rgb(0,0,0)" stroke="rgb(0,0,0)" stroke-width="1" opacity="1" d="M 0 86 L 511.5 86 L 512 86.5 L 512 199 L 0.5 199 L 0 198.5 L 0 86 Z " /><path fill="rgb(193,0,35)" stroke="rgb(193,0,35)" stroke-width="1" opacity="1" d="M 0.5 199 L 512 199.5 L 0.5 200 L 0.5 199 Z " /><path fill="rgb(216,0,39)" stroke="rgb(216,0,39)" stroke-width="1" opacity="1" d="M 0 200 L 511.5 200 L 512 200.5 L 512 313 L 0.5 313 L 0 312.5 L 0 200 Z " /><path fill="rgb(245,162,62)" stroke="rgb(245,162,62)" stroke-width="1" opacity="0.8862745098039215" d="M 0.5 426 L 512 426.5 L 0.5 427 L 0.5 426 Z " /><path fill="rgb(255,218,68)" stroke="rgb(255,218,68)" stroke-width="1" opacity="1" d="M 0 313 L 511.5 313 L 512 313.5 L 512 426 L 0.5 426 L 0 425.5 L 0 313 Z " /></svg>